<svg xmlns="http://www.w3.org/2000/svg" xmlns:xlink="http://www.w3.org/1999/xlink" width="214" height="214" version="1">
 <defs>
  <linearGradient id="linearGradient900">
   <stop style="stop-color:#000000" offset="0"/>
   <stop style="stop-color:#000000;stop-opacity:0" offset="1"/>
  </linearGradient>
  <linearGradient id="linearGradient1358">
   <stop style="stop-color:#000000;stop-opacity:0" offset="0"/>
   <stop style="stop-color:#000000;stop-opacity:0.00176471" offset=".925"/>
   <stop style="stop-color:#000000" offset="1"/>
  </linearGradient>
  <radialGradient id="radialGradient1360" cx="107" cy="107" r="80" fx="107" fy="107" gradientTransform="matrix(1.0011427,0,0,0.9994935,-0.12226332,0.05418577)" gradientUnits="userSpaceOnUse" xlink:href="#linearGradient1358"/>
  <linearGradient id="linearGradient952" x1="115" x2="115" y1="204" y2="14" gradientUnits="userSpaceOnUse" xlink:href="#linearGradient941"/>
  <radialGradient id="radialGradient902" cx="107" cy="107" r="105" fx="107" fy="107" gradientUnits="userSpaceOnUse" xlink:href="#linearGradient900"/>
  <linearGradient id="linearGradient941">
   <stop style="stop-color:#2f3132" offset="0"/>
   <stop style="stop-color:#343637" offset="1"/>
  </linearGradient>
 </defs>
 <g id="ClockFace">
  <path style="opacity:0.001" d="M 0,4.419138e-6 H 214 V 214 H 0 Z"/>
  <path style="fill:url(#radialGradient902)" d="M 212,107 A 105,105 0 0 1 107,212 105,105 0 0 1 2,107 105,105 0 0 1 107,2 105,105 0 0 1 212,107 Z"/>
  <path style="fill:#23262e" d="M 202.5,107 A 95.5,95.5 0 0 1 107,202.5 95.5,95.5 0 0 1 11.5,107 95.5,95.5 0 0 1 107,11.5 95.5,95.5 0 0 1 202.5,107 Z"/>
  <path style="opacity:0.1;fill:url(#radialGradient1360)" d="m 107,27 a 80,80 0 0 0 -80,80 80,80 0 0 0 80,80 80,80 0 0 0 80,-80 80,80 0 0 0 -80,-80 z m 0,10 a 70,70 0 0 1 70,70 70,70 0 0 1 -70,70 70,70 0 0 1 -70,-70 70,70 0 0 1 70,-70 z"/>
  <path style="fill:#0e131a" d="m 187,107 a 80,80 0 0 1 -80,80 80,80 0 0 1 -80,-80 80,80 0 0 1 80,-80 80,80 0 0 1 80,80 z"/>
  <path style="fill:#ffffff" d="m 112.9866,35 c -0.88662,0 -1.6489,0.105587 -2.28615,0.313393 -0.62342,0.193948 -1.17854,0.457026 -1.66341,0.789509 -0.48486,0.318628 -0.93239,0.656329 -1.34799,1.016518 l 1.70358,2.014954 c 0.59569,-0.484868 1.16328,-0.857767 1.70356,-1.120981 0.54029,-0.263214 1.09541,-0.395759 1.6634,-0.395759 0.55413,0 0.98918,0.145018 1.30781,0.435938 0.33248,0.29092 0.49822,0.736223 0.49822,1.331919 0,0.484868 -0.1036,0.940634 -0.31139,1.370089 -0.2078,0.415601 -0.54126,0.887858 -0.99843,1.414286 -0.45717,0.512576 -1.05795,1.154792 -1.80604,1.93058 l -3.71851,3.760715 v 2.183705 h 10.36808 v -2.637723 h -6.46273 v -0.146652 l 1.9125,-1.787946 c 0.87276,-0.803496 1.61232,-1.538832 2.22187,-2.203795 0.6234,-0.664961 1.09365,-1.33614 1.41228,-2.014956 0.33247,-0.678815 0.50022,-1.424614 0.50022,-2.241964 0,-0.761935 -0.19267,-1.441358 -0.58057,-2.037053 -0.37404,-0.609549 -0.9147,-1.08804 -1.62121,-1.434375 C 114.78902,35.180215 113.95634,35 112.9866,35 Z m -11.97523,0.206919 -4.779235,3.804911 1.518749,1.890402 1.703578,-1.372098 c 0.193948,-0.166241 0.401107,-0.352689 0.622758,-0.560491 0.23552,-0.221653 0.38676,-0.374915 0.45603,-0.458036 -0.0276,0.443308 -0.0464,0.963232 -0.0603,1.55893 -0.0139,0.581841 -0.0221,1.04585 -0.0221,1.392186 v 8.582143 h 3.13794 V 35.206919 Z m -30.983695,8.429464 -4.845537,3.859154 1.53884,1.914508 1.727677,-1.38817 c 0.196667,-0.168568 0.406047,-0.357815 0.630804,-0.568526 0.238807,-0.224759 0.393825,-0.379779 0.464063,-0.464064 -0.02809,0.449519 -0.04824,0.97498 -0.06228,1.579018 -0.01404,0.589992 -0.02209,1.061093 -0.02209,1.412277 v 8.70067 h 3.182142 V 43.636383 Z m 12.059598,0 -4.847545,3.859154 1.538838,1.914508 1.72768,-1.38817 c 0.196664,-0.168568 0.406046,-0.357815 0.630803,-0.568526 0.238807,-0.224759 0.393826,-0.379779 0.464062,-0.464064 -0.02809,0.449519 -0.04824,0.97498 -0.06228,1.579018 -0.01404,0.589992 -0.02209,1.061093 -0.02209,1.412277 v 8.70067 h 3.182143 V 43.636383 Z m 58.419637,0.104465 -4.77923,3.804911 1.51673,1.890402 1.70358,-1.372098 c 0.19396,-0.166241 0.40112,-0.352691 0.62276,-0.560491 0.23549,-0.221654 0.38877,-0.374917 0.45805,-0.458035 -0.0276,0.443307 -0.0487,0.963233 -0.0623,1.558926 -0.0139,0.581844 -0.02,1.045854 -0.02,1.392188 v 8.582143 h 3.13794 V 43.740848 Z M 56.877227,67.239285 c -1.241791,0 -2.238753,0.299574 -2.989285,0.9 -0.750535,0.600428 -1.289681,1.466931 -1.617188,2.599554 -0.327504,1.118978 -0.490179,2.462623 -0.490179,4.03192 0,2.360767 0.408693,4.202896 1.227455,5.526562 0.818764,1.323669 2.108857,1.986831 3.869197,1.986831 1.241791,0 2.236743,-0.299573 2.987277,-0.9 0.750533,-0.600427 1.289682,-1.462498 1.617188,-2.581473 0.341153,-1.118977 0.512277,-2.462624 0.512277,-4.03192 0,-2.374414 -0.417144,-4.222985 -1.249554,-5.546652 -0.832408,-1.323668 -2.120493,-1.984822 -3.867188,-1.984822 z m 106.222103,0 c -0.88662,0 -1.64891,0.101583 -2.28616,0.309376 -0.6234,0.193947 -1.17653,0.459035 -1.6614,0.791517 -0.48485,0.318627 -0.9364,0.658339 -1.35201,1.018528 l 1.70358,2.014955 c 0.59569,-0.484868 1.16329,-0.859776 1.70357,-1.122992 0.54028,-0.263214 1.0954,-0.39375 1.66339,-0.39375 0.55412,0 0.9912,0.145018 1.30983,0.435938 0.33248,0.290923 0.4962,0.734216 0.4962,1.329911 0,0.484868 -0.10162,0.942642 -0.30937,1.372098 -0.2078,0.415602 -0.53926,0.887857 -0.99643,1.414286 -0.45716,0.512575 -1.06196,1.154792 -1.81005,1.93058 l -3.71852,3.760714 v 2.183706 h 10.36808 V 79.64442 h -6.46273 v -0.146652 l 1.9125,-1.785938 c 0.87277,-0.803495 1.61435,-1.538832 2.22389,-2.203795 0.6234,-0.664961 1.09365,-1.336137 1.41227,-2.014954 0.33249,-0.678815 0.49823,-1.426624 0.49823,-2.243974 0,-0.761935 -0.19269,-1.441358 -0.58059,-2.037053 -0.37402,-0.60955 -0.91468,-1.08804 -1.6212,-1.434375 -0.69267,-0.360188 -1.52335,-0.538394 -2.49308,-0.538394 z m -117.853799,0.225 -4.708929,3.744643 1.494644,1.862278 1.679463,-1.35 c 0.191047,-0.163753 0.394386,-0.347766 0.612724,-0.552456 0.231983,-0.218338 0.383778,-0.368123 0.452009,-0.45 -0.0273,0.436673 -0.05065,0.948041 -0.06428,1.534822 -0.01365,0.573133 -0.01809,1.030947 -0.01809,1.372097 v 8.451563 h 3.089732 V 67.464285 Z m 11.631696,2.272098 c 0.764181,0 1.296886,0.42158 1.597099,1.267634 0.300214,0.846056 0.44799,2.101923 0.44799,3.766742 0,1.678464 -0.147776,2.934331 -0.44799,3.766741 -0.300213,0.83241 -0.832918,1.247545 -1.597099,1.247545 -0.777825,0 -1.310531,-0.415135 -1.597098,-1.247545 -0.286567,-0.846055 -0.43192,-2.101922 -0.43192,-3.766741 0,-1.664819 0.145353,-2.920686 0.43192,-3.766742 0.286567,-0.846054 0.819273,-1.267634 1.597098,-1.267634 z M 42.286379,99.47857 c -1.534625,0 -2.753932,0.4517 -3.658259,1.35603 -0.890629,0.90433 -1.333928,2.1512 -1.333928,3.74062 0,1.47982 0.375411,2.62284 1.129017,3.43125 0.753615,0.80842 1.754465,1.2134 3.00134,1.2134 0.931736,0 1.631456,-0.16335 2.097321,-0.49219 0.47957,-0.32886 0.861366,-0.73382 1.149108,-1.2134 h 0.124553 c -0.0411,0.90434 -0.198054,1.70589 -0.472098,2.4047 -0.274037,0.68509 -0.746906,1.21945 -1.418304,1.60311 -0.657693,0.38365 -1.595028,0.57657 -2.814509,0.57657 -0.301438,0 -0.604579,-0.0232 -0.906027,-0.0643 -0.301439,-0.0412 -0.589794,-0.0879 -0.863839,-0.14264 v 2.48706 c 0.26034,0.0548 0.582638,0.0908 0.966295,0.10446 0.383656,0.0273 0.718731,0.0402 1.006473,0.0402 1.21948,0 2.254274,-0.15895 3.103794,-0.4741 0.863226,-0.32885 1.569338,-0.77416 2.117411,-1.33594 0.561788,-0.57548 0.994319,-1.22649 1.295759,-1.95268 0.315145,-0.73992 0.533602,-1.52029 0.65692,-2.34241 0.123317,-0.83582 0.184821,-1.67133 0.184821,-2.50714 0,-1.46611 -0.239633,-2.67064 -0.719197,-3.61608 -0.479569,-0.95913 -1.124169,-1.66725 -1.932588,-2.11942 -0.808415,-0.46586 -1.713814,-0.69709 -2.714063,-0.69709 z m 129.089721,0 c -1.06583,0 -1.9874,0.13452 -2.76629,0.40781 -0.76521,0.27329 -1.433,0.61462 -2.00691,1.02456 l 1.43235,2.13349 c 0.34161,-0.21864 0.77451,-0.45115 1.29377,-0.69711 0.51926,-0.24596 1.12719,-0.36964 1.8241,-0.36964 0.75155,0 1.28281,0.14938 1.5971,0.45 0.32793,0.28697 0.49218,0.69012 0.49218,1.20938 0,0.38261 -0.0896,0.72594 -0.26719,1.02656 -0.16396,0.28695 -0.48401,0.51945 -0.96226,0.6971 -0.4646,0.16397 -1.14925,0.24508 -2.05113,0.24508 h -1.127 v 2.37858 h 1.10892 c 0.91554,0 1.62388,0.0747 2.12947,0.22499 0.51925,0.13665 0.88188,0.34786 1.08684,0.63483 0.20496,0.28695 0.30736,0.62827 0.30736,1.02455 0,0.69689 -0.22408,1.23858 -0.67501,1.6212 -0.43728,0.38261 -1.20944,0.57254 -2.31629,0.57255 -0.60125,0 -1.24333,-0.081 -1.92655,-0.2451 -0.68322,-0.16397 -1.34019,-0.40489 -1.96875,-0.71918 v 2.62366 c 1.22981,0.53293 2.63765,0.79955 4.22276,0.79955 1.36647,0 2.48001,-0.19194 3.34084,-0.57455 0.87455,-0.39627 1.51865,-0.92753 1.92858,-1.5971 0.4236,-0.68323 0.63282,-1.449 0.63282,-2.29621 0,-0.95652 -0.30721,-1.72229 -0.92211,-2.29621 -0.61492,-0.57391 -1.50233,-0.93451 -2.66385,-1.08481 v -0.0623 c 0.88822,-0.21864 1.63271,-0.63022 2.23395,-1.23147 0.6149,-0.60125 0.92209,-1.40554 0.92209,-2.41675 0,-1.10682 -0.44573,-1.96214 -1.33392,-2.56338 -0.87455,-0.61491 -2.06275,-0.92009 -3.56587,-0.92009 z m -129.025436,2.48705 c 0.493269,0 0.902624,0.14418 1.231474,0.43193 0.328851,0.27404 0.576876,0.63027 0.741295,1.06874 0.164425,0.43846 0.245089,0.88177 0.245089,1.33393 0,0.32886 -0.09546,0.65316 -0.287276,0.9683 -0.191827,0.30144 -0.459014,0.55385 -0.801563,0.75939 -0.342548,0.20552 -0.741136,0.30937 -1.193304,0.30937 -0.671398,0 -1.171828,-0.2077 -1.500669,-0.61876 -0.328851,-0.41105 -0.492188,-0.97298 -0.492188,-1.68549 0,-0.87692 0.192906,-1.51951 0.576563,-1.93057 0.383656,-0.42476 0.877693,-0.63684 1.480579,-0.63684 z m 8.983929,29.75023 c -0.821001,0 -1.593087,0.13175 -2.318303,0.39174 -0.711532,0.25999 -1.2858,0.65565 -1.72366,1.18929 -0.437867,0.51997 -0.65692,1.1623 -0.65692,1.92857 0,0.87575 0.227465,1.60938 0.679018,2.19776 0.465225,0.57468 1.026684,1.06806 1.683481,1.47857 -0.779942,0.38314 -1.445519,0.88732 -1.992856,1.51674 -0.547329,0.61574 -0.819643,1.4239 -0.819643,2.42277 0,1.21781 0.442508,2.17491 1.33192,2.87277 0.9031,0.69784 2.17497,1.04666 3.816963,1.04666 1.012564,0 1.903607,-0.16379 2.669866,-0.4922 0.779956,-0.3284 1.381851,-0.79415 1.806027,-1.3962 0.43786,-0.60207 0.65692,-1.30608 0.65692,-2.11339 0,-0.6431 -0.150976,-1.21299 -0.452008,-1.70558 -0.28735,-0.4926 -0.670196,-0.91589 -1.149108,-1.27165 -0.465234,-0.36945 -0.958609,-0.68862 -1.478571,-0.96228 0.752575,-0.36946 1.375702,-0.83521 1.868302,-1.39621 0.50628,-0.56103 0.759377,-1.28626 0.759377,-2.17566 0,-0.77996 -0.21906,-1.4307 -0.656921,-1.95067 -0.424183,-0.53364 -0.992039,-0.9293 -1.70357,-1.18929 -0.697842,-0.25999 -1.471946,-0.39174 -2.320314,-0.39174 z m 112.598427,0 -6.5953,9.71517 v 2.21183 h 6.42656 v 3.11787 h 3.09777 v -3.11787 h 1.81206 v -2.46494 h -1.81206 v -9.46206 z m -112.616507,2.25804 c 0.506278,0 0.92957,0.13615 1.271651,0.40982 0.342082,0.25999 0.512278,0.62361 0.512278,1.08884 0,0.53365 -0.1766,0.95894 -0.532367,1.27366 -0.355765,0.30101 -0.768254,0.56052 -1.233482,0.77945 -0.478918,-0.23262 -0.893786,-0.5069 -1.249553,-0.82164 -0.355765,-0.31469 -0.534376,-0.72519 -0.534376,-1.23147 0,-0.46523 0.16379,-0.82885 0.492189,-1.08884 0.342081,-0.27367 0.767375,-0.40982 1.27366,-0.40982 z m 112.489957,1.38817 h 0.0843 c -0.0141,0.12641 -0.0363,0.39216 -0.0643,0.79955 -0.0141,0.39331 -0.0282,0.82418 -0.0421,1.28773 -0.0141,0.46357 -0.02,0.85614 -0.02,1.17923 v 2.54934 h -3.62411 l 2.76028,-4.17254 c 0.18261,-0.28096 0.34366,-0.55476 0.48414,-0.82166 0.15453,-0.26689 0.29544,-0.54071 0.42189,-0.82165 z m -112.61451,4.81138 0.267187,0.14263 c 0.328399,0.19156 0.655969,0.40423 0.984375,0.63683 0.328399,0.21893 0.604731,0.47204 0.823661,0.75938 0.21893,0.27367 0.327455,0.59484 0.327455,0.96428 0,0.54735 -0.193429,0.98543 -0.576563,1.31384 -0.383126,0.32838 -0.955386,0.4942 -1.721651,0.4942 -0.7389,0 -1.300349,-0.1722 -1.683482,-0.51429 -0.36945,-0.34207 -0.554465,-0.78019 -0.554465,-1.31384 0,-0.56102 0.191421,-1.03957 0.574553,-1.43639 0.396817,-0.39682 0.915817,-0.74561 1.55893,-1.04664 z m 18.341517,15.1433 v 2.6759 h 7.416965 l -5.649107,12.36897 h 3.328794 l 5.691295,-13.04398 v -2.00089 z m 65.768303,0 -0.56049,7.56361 1.24555,0.66497 c 0.27706,-0.0692 0.62502,-0.13764 1.04061,-0.20693 0.41561,-0.0831 0.81545,-0.12456 1.20335,-0.12456 1.98103,0 2.97322,0.74781 2.97322,2.24398 0,0.8035 -0.25061,1.39805 -0.74934,1.78593 -0.48487,0.37405 -1.19325,0.56252 -2.12143,0.56252 -0.63725,0 -1.31466,-0.0911 -2.03504,-0.27121 -0.72038,-0.19393 -1.33563,-0.42183 -1.84822,-0.68505 v 2.7 c 0.51258,0.26322 1.10714,0.46414 1.78594,0.60268 0.69269,0.13853 1.428,0.20893 2.2038,0.20893 1.95333,0 3.42823,-0.45778 4.42566,-1.3721 0.99746,-0.92817 1.49465,-2.19591 1.49465,-3.8029 0,-0.98359 -0.20716,-1.80603 -0.62277,-2.47099 -0.40175,-0.66496 -0.95688,-1.1724 -1.66339,-1.51874 -0.70653,-0.34633 -1.50824,-0.51831 -2.40871,-0.51831 -0.48487,0 -0.86802,0.0269 -1.14509,0.0824 -0.26322,0.0416 -0.50979,0.0849 -0.74531,0.12655 l 0.2692,-2.90892 h 5.29755 v -2.66183 z m -25.95736,8.6384 c -1.21948,0 -2.26065,0.16536 -3.12388,0.4942 -0.84952,0.31515 -1.55564,0.76046 -2.11741,1.33593 -0.54808,0.5618 -0.9786,1.21277 -1.29375,1.95267 -0.30145,0.7262 -0.51352,1.5066 -0.63684,2.34241 -0.12331,0.82214 -0.18682,1.65124 -0.18682,2.48705 0,1.46613 0.23963,2.67703 0.7192,3.63617 0.47956,0.94544 1.12618,1.65355 1.9346,2.11943 0.80841,0.45216 1.70977,0.677 2.71004,0.677 1.53461,0 2.74754,-0.4517 3.63817,-1.35603 0.90432,-0.90433 1.35803,-2.15119 1.35803,-3.74062 0,-1.47981 -0.37742,-2.62486 -1.13102,-3.43327 -0.75361,-0.80842 -1.77364,-1.21137 -3.06161,-1.21137 -0.82213,0 -1.49227,0.16535 -2.01295,0.49419 -0.50696,0.32885 -0.89917,0.73183 -1.17321,1.21138 h -0.12255 c 0.0412,-0.90432 0.19804,-1.69949 0.4721,-2.38459 0.27403,-0.6988 0.74053,-1.23955 1.39822,-1.62322 0.6714,-0.38364 1.61512,-0.57456 2.8346,-0.57456 0.30144,0 0.60457,0.0192 0.90603,0.0603 0.31513,0.0412 0.60149,0.0899 0.86183,0.14464 v -2.48706 c -0.26034,-0.0548 -0.58064,-0.0888 -0.96429,-0.10244 -0.38366,-0.0273 -0.72075,-0.0421 -1.00849,-0.0421 z m -1.99486,7.68817 c 0.67138,0 1.17182,0.20367 1.50067,0.61473 0.32885,0.41106 0.49419,0.97299 0.49419,1.68549 0,0.87692 -0.1909,1.52991 -0.57456,1.95469 -0.38365,0.41105 -0.87768,0.61472 -1.48057,0.61472 -0.47957,0 -0.89094,-0.13578 -1.23348,-0.40982 -0.32885,-0.28774 -0.57488,-0.65037 -0.73929,-1.08884 -0.16443,-0.43845 -0.2471,-0.88578 -0.2471,-1.33794 0,-0.32886 0.0954,-0.64275 0.28727,-0.9442 0.19183,-0.31514 0.45464,-0.57593 0.78349,-0.78148 0.34256,-0.20553 0.7435,-0.30735 1.20938,-0.30735 z"/>
 </g>
 <g id="SecondHand" transform="translate(-111,-27)">
  <path style="opacity:0.001" d="m 214,116 h 8 v 99 h -8 z"/>
  <path style="fill:#1a9fff" d="m 217.5,117 v 14.04102 A 3,3 0 0 0 215,134 a 3,3 0 0 0 2.5,2.95703 V 214 h 1 V 136.95898 A 3,3 0 0 0 221,134 3,3 0 0 0 218.5,131.04297 V 117 Z"/>
 </g>
 <g id="MinuteHand" transform="translate(-121,-43)">
  <path style="opacity:0.001" d="m 222,144 v 71 h 12 v -71 z"/>
  <path style="fill:#ffffff" d="m 228,145 c -2.76142,0 -5,2.23858 -5,5 7e-5,2.18353 1.41705,4.11447 3.5,4.76953 V 212.5 c 0,0 -0.0606,1.5 1.5,1.5 1.56061,0 1.5,-1.5 1.5,-1.5 v -57.73242 c 2.08227,-0.65484 3.49908,-2.58477 3.5,-4.76758 0,-2.76142 -2.23858,-5 -5,-5 z"/>
 </g>
 <g id="HourHand">
  <path style="opacity:0.001" d="m 103.5,104 h 7 v 44 h -7 z"/>
  <path style="fill:#ffffff" d="m 104.5,105 h 5 v 39.5 c 0,0 0,2.5 -2.5,2.5 -2.5,0 -2.5,-2.5 -2.5,-2.5 z"/>
 </g>
 <circle id="hint-hourhand-rotation-center-offset" style="fill:#ff0000" cx="107" cy="107" r="2"/>
 <circle id="hint-minutehand-rotation-center-offset" style="fill:#ff0000" cx="107" cy="107" r="2"/>
 <circle id="hint-secondhand-rotation-center-offset" style="fill:#ff0000" cx="107" cy="107" r="2"/>
</svg>
