<svg xmlns="http://www.w3.org/2000/svg" width="32" height="32" version="1.1">
 <g id="start-here-kde">
  <rect style="opacity:0.001" width="32" height="32" x="0" y="0"/>
  <path style="fill:#1a9fff" d="m 13,21 c 2.761429,0 5,-2.238571 5,-5 0,-2.761428 -2.238571,-5 -5,-5 -2.761429,0 -5,2.238572 -5,5 0,2.761429 2.238571,5 5,5 z"/>
  <path style="fill:#fefefe" d="M 13 4.0097656 L 13 8.3183594 C 17.074351 8.5136932 20.316406 11.877197 20.316406 16 C 20.316406 20.122803 17.074351 23.486307 13 23.681641 L 13 27.990234 C 19.453335 27.79154 24.625 22.50161 24.625 16 C 24.625 9.4984194 19.453335 4.208461 13 4.0097656 z"/>
 </g>
 <g id="22-22-start-here-kde">
  <rect style="opacity:0.001" width="22" height="22" x="32" y="10"/>
  <path style="fill:#1a9fff" d="m 41,25 c 2.209143,0 4,-1.790857 4,-4 0,-2.209143 -1.790857,-4 -4,-4 -2.209143,0 -4,1.790857 -4,4 0,2.209143 1.790857,4 4,4 z"/>
  <path style="fill:#fefefe" d="m 41,15.871795 c 2.8322,0 5.1282,2.295955 5.1282,5.128205 0,2.83225 -2.296,5.1282 -5.1282,5.1282 V 29 c 4.41825,0 8,-3.5817 8,-8 0,-4.41828 -3.58175,-8 -8,-8 z"/>
 </g>
</svg>
