<svg xmlns="http://www.w3.org/2000/svg" width="24" height="24" version="1.1">
 <g id="hover-center" transform="matrix(1.0909091,0,0,1.0909091,-1.0909092,0)">
  <g transform="translate(23)">
   <rect style="opacity:0.001" width="22" height="22" x="0" y="0"/>
  </g>
  <path style="fill:#1a9fff" transform="matrix(0.91666666,0,0,0.91666666,1.0000001,0)" d="M 36 2 A 10 10 0 0 0 26 12 A 10 10 0 0 0 36 22 A 10 10 0 0 0 46 12 A 10 10 0 0 0 36 2 z M 36 8 A 4.0003637 4.0003637 0 0 1 40 12 A 4.0003637 4.0003637 0 0 1 36 16 A 4.0003637 4.0003637 0 0 1 32 12 A 4.0003637 4.0003637 0 0 1 36 8 z"/>
 </g>
 <g id="pressed-center" transform="matrix(1.0909091,0,0,1.0909091,-2.1818183,0)">
  <g transform="translate(46)">
   <rect style="opacity:0.001" width="22" height="22" x="0" y="0"/>
  </g>
  <path style="fill:#1a9fff" transform="matrix(0.91666666,0,0,0.91666666,2.0000001,0)" d="M 60 2 A 10 10 0 0 0 50 12 A 10 10 0 0 0 60 22 A 10 10 0 0 0 70 12 A 10 10 0 0 0 60 2 z M 60 8 A 4.0003637 4.0003637 0 0 1 64 12 A 4.0003637 4.0003637 0 0 1 60 16 A 4.0003637 4.0003637 0 0 1 56 12 A 4.0003637 4.0003637 0 0 1 60 8 z"/>
 </g>
 <g id="inactive-center" transform="matrix(1.0909091,0,0,1.0909091,-3.2727274,0)">
  <rect style="opacity:0.001" width="22" height="22" x="69" y="0"/>
  <circle style="opacity:0.3;fill:#fefefe" cx="80" cy="11" r="3.667"/>
 </g>
 <g id="deactivated-center" transform="matrix(1.0909091,0,0,1.0909091,-4.3636365,0)">
  <rect style="opacity:0.001" width="22" height="22" x="92" y="0"/>
  <circle style="opacity:0.3;fill:#fefefe" cx="103" cy="11" r="3.667"/>
 </g>
 <g id="active-center" transform="matrix(1.0909091,0,0,1.0909091,-25.090909,0)">
  <g transform="translate(23)">
   <rect style="opacity:0.00100002" width="22" height="22" x="0" y="0"/>
  </g>
  <path style="fill:#fefefe" transform="matrix(0.91666666,0,0,0.91666666,23,0)" d="M 12 2 A 10 10 0 0 0 2 12 A 10 10 0 0 0 12 22 A 10 10 0 0 0 22 12 A 10 10 0 0 0 12 2 z M 12 8 A 4.0003637 4.0003637 0 0 1 16 12 A 4.0003637 4.0003637 0 0 1 12 16 A 4.0003637 4.0003637 0 0 1 8 12 A 4.0003637 4.0003637 0 0 1 12 8 z"/>
 </g>
</svg>
