<svg xmlns="http://www.w3.org/2000/svg" width="24" height="24" version="1.1">
 <g id="pressed-center">
  <rect style="opacity:0.001" width="24" height="24" x="48" y="0"/>
  <path style="fill:#9f9f9f" d="M 60 2 A 10 10 0 0 0 50 12 A 10 10 0 0 0 60 22 A 10 10 0 0 0 70 12 A 10 10 0 0 0 60 2 z M 60 8 C 61.656854 8 63 9.343146 63 11 C 63 12.656854 61.656854 14 60 14 L 59 14 L 59 12 L 60 12 C 60.552285 12 61 11.552285 61 11 C 61 10.447715 60.552285 10 60 10 L 57 10 C 57.423507 8.802141 58.729479 8.000955 60 8 z M 59 15 L 61 15 L 61 16 L 59 16 L 59 15 z"/>
 </g>
 <g id="hover-center">
  <rect style="opacity:0.001" width="24" height="24" x="24" y="0"/>
  <path style="fill:#9f9f9f" d="M 36 2 A 10 10 0 0 0 26 12 A 10 10 0 0 0 36 22 A 10 10 0 0 0 46 12 A 10 10 0 0 0 36 2 z M 36 8 C 37.656854 8.0000001 39 9.3431458 39 11 C 39 12.656854 37.656854 14 36 14 L 35 14 L 35 12 L 36 12 C 36.552285 12 37 11.552285 37 11 C 37 10.447715 36.552285 10 36 10 L 33 10 C 33.423507 8.802141 34.729479 8.0009551 36 8 z M 35 15 L 37 15 L 37 16 L 35 16 L 35 15 z"/>
 </g>
 <g id="deactivated-center">
  <rect style="opacity:0.001" width="24" height="24" x="96" y="0"/>
  <path style="opacity:0.3;fill:#fefefe" d="m 108,7.9999998 c -1.27053,9.55e-4 -2.5765,0.802141 -3,2 h 3 c 0.55228,0 1,0.4477152 1,1.0000002 0,0.552285 -0.44772,1 -1,1 h -1 v 2 h 1 c 1.65685,0 3,-1.343146 3,-3 0,-1.6568542 -1.34315,-3.0000002 -3,-3.0000002 z M 107,15 v 1 h 2 v -1 z"/>
 </g>
 <g id="inactive-center">
  <rect style="opacity:0.001" width="24" height="24" x="72" y="0"/>
  <path style="opacity:0.3;fill:#fefefe" d="m 84,7.9999997 c -1.270521,9.551e-4 -2.576493,0.8021411 -3,2.0000001 h 3 c 0.552285,0 1,0.4477152 1,1.0000002 0,0.552285 -0.447715,1 -1,1 h -1 v 2 h 1 c 1.656854,0 3,-1.343146 3,-3 C 87,9.3431458 85.656854,7.9999998 84,7.9999997 Z M 83,15 v 1 h 2 v -1 z"/>
 </g>
 <g id="active-center" transform="translate(-24)">
  <rect style="opacity:0.00100002" width="24" height="24" x="24" y="0"/>
  <path style="fill:#fefefe" transform="translate(24)" d="M 12 2 A 10 10 0 0 0 2 12 A 10 10 0 0 0 12 22 A 10 10 0 0 0 22 12 A 10 10 0 0 0 12 2 z M 12 8 C 13.656854 8.0000001 15 9.3431458 15 11 C 15 12.656854 13.656854 14 12 14 L 11 14 L 11 12 L 12 12 C 12.552285 12 13 11.552285 13 11 C 13 10.447715 12.552285 10 12 10 L 9 10 C 9.423507 8.802141 10.729479 8.0009551 12 8 z M 11 15 L 13 15 L 13 16 L 11 16 L 11 15 z"/>
 </g>
</svg>
