<svg xmlns="http://www.w3.org/2000/svg" width="24" height="24" version="1.1">
 <g id="hover-center" transform="matrix(1.0909091,0,0,1.0909091,-1.0909091,0)">
  <rect style="opacity:0.001" width="22" height="22" x="23" y="0"/>
  <path style="opacity:1;fill:#8240fe" transform="matrix(0.91666666,0,0,0.91666666,1,0)" d="M 36 2 A 10 10 0 0 0 26 12 A 10 10 0 0 0 36 22 A 10 10 0 0 0 46 12 A 10 10 0 0 0 36 2 z M 36 8 L 41 14 L 31 14 L 36 8 z"/>
 </g>
 <g id="pressed-center" transform="matrix(1.0909091,0,0,1.0909091,-2.1818182,0)">
  <rect style="opacity:0.001" width="22" height="22" x="46" y="0"/>
  <path style="opacity:1;fill:#8240fe" transform="matrix(0.91666666,0,0,0.91666666,2,0)" d="M 60 2 A 10 10 0 0 0 50 12 A 10 10 0 0 0 60 22 A 10 10 0 0 0 70 12 A 10 10 0 0 0 60 2 z M 60 8 L 65 14 L 55 14 C 56.666668 12 58.333333 10 60 8 z"/>
 </g>
 <g id="inactive-center" transform="matrix(1.0909091,0,0,1.0909091,-3.2727273,0)">
  <rect style="opacity:0.001" width="22" height="22" x="69" y="0"/>
  <path style="opacity:0.3;fill:#fefefe;fill-opacity:1" d="M 80,7.3333332 C 81.527778,9.166666 83.055556,11 84.583333,12.833333 c -3.055555,0 -6.111111,0 -9.166666,0 C 76.944445,11 78.472222,9.1666666 80,7.3333332 Z"/>
 </g>
 <g id="deactivated-center" transform="matrix(1.0909091,0,0,1.0909091,-4.3636364,0)">
  <rect style="opacity:0.001" width="22" height="22" x="92" y="0"/>
  <path style="opacity:0.3;fill:#fefefe;fill-opacity:1" d="m 103,7.3333332 4.58333,5.4999998 h -9.166664 z"/>
 </g>
 <g id="active-center" transform="matrix(1.0909091,0,0,1.0909091,-25.090909,0)">
  <rect style="opacity:0.00100002" width="22" height="22" x="23" y="0"/>
  <path style="opacity:1;fill:#fefefe" transform="matrix(0.91666666,0,0,0.91666666,23,0)" d="M 12 2 A 10 10 0 0 0 2 12 A 10 10 0 0 0 12 22 A 10 10 0 0 0 22 12 A 10 10 0 0 0 12 2 z M 12 8 L 17 14 L 7 14 L 12 8 z"/>
 </g>
</svg>
