<svg xmlns="http://www.w3.org/2000/svg" width="24" height="24" version="1.1">
 <g id="pressed-center" transform="matrix(1.0909091,0,0,1.0909091,-2.1818182,0)">
  <g transform="translate(46)">
   <rect style="opacity:0.001" width="22" height="22" x="0" y="0"/>
  </g>
  <path style="opacity:1;fill:#fec440" transform="matrix(0.91666666,0,0,0.91666666,2,0)" d="M 60 2 A 10 10 0 0 0 50 12 A 10 10 0 0 0 60 22 A 10 10 0 0 0 70 12 A 10 10 0 0 0 60 2 z M 56 14 L 64 14 L 64 16 L 56 16 L 56 14 z"/>
 </g>
 <g id="hover-center" transform="matrix(1.0909091,0,0,1.0909091,-1.0909091,0)">
  <g transform="translate(23)">
   <rect style="opacity:0.001" width="22" height="22" x="0" y="0"/>
  </g>
  <path style="opacity:1;fill:#fec440" transform="matrix(0.91666666,0,0,0.91666666,1,0)" d="M 36 2 A 10 10 0 0 0 26 12 A 10 10 0 0 0 36 22 A 10 10 0 0 0 46 12 A 10 10 0 0 0 36 2 z M 32 14 L 40 14 L 40 16 L 32 16 L 32 14 z"/>
 </g>
 <g id="inactive-center" transform="matrix(1.0909091,0,0,1.0909091,72.000001,0)">
  <rect style="opacity:0.001" width="22" height="22" x="0" y="0"/>
  <path style="opacity:0.3;fill:#fefefe;fill-opacity:1" d="m 7.3333664,12.83335 v 1.833317 H 14.666634 V 12.83335 Z"/>
 </g>
 <g id="deactivated-center" transform="matrix(1.0909091,0,0,1.0909091,96.000001,0)">
  <rect style="opacity:0.001" width="22" height="22" x="0" y="0"/>
  <path style="opacity:0.3;fill:#fefefe;fill-opacity:1" d="m 7.3333663,12.83335 v 1.833317 H 14.666634 V 12.83335 Z"/>
 </g>
 <g id="active-center" transform="matrix(1.0909091,0,0,1.0909091,-25.090909,0)">
  <g transform="translate(23)">
   <rect style="opacity:0.00100002" width="22" height="22" x="0" y="0"/>
  </g>
  <path style="opacity:1;fill:#fefefe" transform="matrix(0.91666666,0,0,0.91666666,23,0)" d="M 12 2 A 10 10 0 0 0 2 12 A 10 10 0 0 0 12 22 A 10 10 0 0 0 22 12 A 10 10 0 0 0 12 2 z M 8 14 L 16 14 L 16 16 L 8 16 L 8 14 z"/>
 </g>
</svg>
